<?xml version="1.0" encoding="utf-8"?>
<svg version="1.1" xmlns:xlink="http://www.w3.org/1999/xlink" width="6px" height="7px" xmlns="http://www.w3.org/2000/svg">
  <defs>
    <pattern id="BGPattern" patternUnits="userSpaceOnUse" alignment="0 0" imageRepeat="None" />
    <mask fill="white" id="Clip1253">
      <path d="M 0.08311435312499924 3.4884774232954565  C 0.08311435312499924 1.7715437926136364  1.3835583843750001 0.3805251207386362  2.987549774999999 0.3805251505681827  C 4.591541165624998 0.3805251505681827  5.891985196874998 1.7715437926136364  5.891985196874998 3.4884774232954565  C 5.891985196874998 5.204647447443183  4.591541165624998 6.595818816761363  2.987549774999999 6.595818816761363  C 1.3835583843750001 6.595818816761363  0.08311435312499924 5.204647447443183  0.08311435312499924 3.4884774232954565  Z " fill-rule="evenodd" />
    </mask>
  </defs>
  <g transform="matrix(1 0 0 1 -282 -14 )">
    <path d="M 0.08311435312499924 3.4884774232954565  C 0.08311435312499924 1.7715437926136364  1.3835583843750001 0.3805251207386362  2.987549774999999 0.3805251505681827  C 4.591541165624998 0.3805251505681827  5.891985196874998 1.7715437926136364  5.891985196874998 3.4884774232954565  C 5.891985196874998 5.204647447443183  4.591541165624998 6.595818816761363  2.987549774999999 6.595818816761363  C 1.3835583843750001 6.595818816761363  0.08311435312499924 5.204647447443183  0.08311435312499924 3.4884774232954565  Z " fill-rule="nonzero" fill="rgba(41, 61, 80, 1)" stroke="none" transform="matrix(1 0 0 1 282 14 )" class="fill" />
    <path d="M 0.08311435312499924 3.4884774232954565  C 0.08311435312499924 1.7715437926136364  1.3835583843750001 0.3805251207386362  2.987549774999999 0.3805251505681827  C 4.591541165624998 0.3805251505681827  5.891985196874998 1.7715437926136364  5.891985196874998 3.4884774232954565  C 5.891985196874998 5.204647447443183  4.591541165624998 6.595818816761363  2.987549774999999 6.595818816761363  C 1.3835583843750001 6.595818816761363  0.08311435312499924 5.204647447443183  0.08311435312499924 3.4884774232954565  Z " stroke-width="0" stroke-dasharray="0" stroke="rgba(255, 255, 255, 0)" fill="none" transform="matrix(1 0 0 1 282 14 )" class="stroke" mask="url(#Clip1253)" />
  </g>
</svg>