<?xml version="1.0" encoding="utf-8"?>
<svg version="1.1" xmlns:xlink="http://www.w3.org/1999/xlink" width="25px" height="25px" xmlns="http://www.w3.org/2000/svg">
  <defs>
    <linearGradient gradientUnits="userSpaceOnUse" x1="24.99999999999991" y1="-1.4210854715202004E-12" x2="2.784324812337058" y2="24.99999999999858" id="LinearGradient1291">
      <stop id="Stop1292" stop-color="#df8546" offset="0" />
      <stop id="Stop1293" stop-color="#df1905" offset="1" />
    </linearGradient>
    <pattern id="BGPattern" patternUnits="userSpaceOnUse" alignment="0 0" imageRepeat="None" />
    <mask fill="white" id="Clip1294">
      <path d="M 0 4.166666666666666  C 0 1.3888888888888888  1.3888888888888888 0  4.166666666666666 0  L 20.833333333333336 0  C 23.61111111111111 0  25 1.3888888888888888  25 4.166666666666666  L 25 20.833333333333336  C 25 23.61111111111111  23.61111111111111 25  20.833333333333336 25  L 4.166666666666666 25  C 1.3888888888888888 25  0 23.61111111111111  0 20.833333333333336  L 0 4.166666666666666  Z " fill-rule="evenodd" />
    </mask>
  </defs>
  <g transform="matrix(1 0 0 1 -99 -37 )">
    <path d="M 0 4.166666666666666  C 0 1.3888888888888888  1.3888888888888888 0  4.166666666666666 0  L 20.833333333333336 0  C 23.61111111111111 0  25 1.3888888888888888  25 4.166666666666666  L 25 20.833333333333336  C 25 23.61111111111111  23.61111111111111 25  20.833333333333336 25  L 4.166666666666666 25  C 1.3888888888888888 25  0 23.61111111111111  0 20.833333333333336  L 0 4.166666666666666  Z " fill-rule="nonzero" fill="url(#LinearGradient1291)" stroke="none" transform="matrix(1 0 0 1 99 37 )" class="fill" />
    <path d="M 0 4.166666666666666  C 0 1.3888888888888888  1.3888888888888888 0  4.166666666666666 0  L 20.833333333333336 0  C 23.61111111111111 0  25 1.3888888888888888  25 4.166666666666666  L 25 20.833333333333336  C 25 23.61111111111111  23.61111111111111 25  20.833333333333336 25  L 4.166666666666666 25  C 1.3888888888888888 25  0 23.61111111111111  0 20.833333333333336  L 0 4.166666666666666  Z " stroke-width="0" stroke-dasharray="0" stroke="rgba(255, 255, 255, 0)" fill="none" transform="matrix(1 0 0 1 99 37 )" class="stroke" mask="url(#Clip1294)" />
  </g>
</svg>