<?xml version="1.0" encoding="utf-8"?>
<svg version="1.1" xmlns:xlink="http://www.w3.org/1999/xlink" width="20px" height="20px" xmlns="http://www.w3.org/2000/svg">
  <defs>
    <pattern id="BGPattern" patternUnits="userSpaceOnUse" alignment="0 0" imageRepeat="None" />
    <mask fill="white" id="Clip1333">
      <path d="M 11.567083339843748 17.0625  C 11.568690682165169 18.667669129581647  12.869414457066117 19.968579305091804  14.474583339843747 19.970416660156253  L 17.057916660156252 19.970416660156253  C 18.663085542933878 19.9685793050918  19.96380931783483 18.667669129581643  19.965416660156247 17.0625  L 19.965416660156247 14.478333339843752  C 19.965416660156247 12.875833339843751  18.661666660156254 11.571666679687503  17.057916660156252 11.571666660156252  L 16.425 11.571666660156252  C 16.280009323606166 10.87442930136972  15.884515320933328 10.254505789801467  15.313333339843751 9.829166660156252  C 15.008333339843752 9.535000000000004  14.3266666796875 9.251666660156253  13.578333339843748 9.251666660156253  L 11.1775 9.251666660156253  C 11.687793441064471 9.026649175983096  12.12278985636965 8.659910181073915  12.43083333984375 8.195000000000002  L 13.89 6.8191666601562515  C 14.43601002823083 6.277535102901338  14.742550581445153 5.539917212533149  14.741249999999999 4.770833339843754  L 14.741249999999997 4.762500000000003  C 14.743495990858746 3.9912723357790107  14.436947044230513 3.251233469028911  13.89 2.7075000000000027  L 12.063333339843748 0.8800000000000026  C 11.521543296367927 0.3342258693692878  10.784028483679677 0.027728156282820073  10.015 0.028750000000000005  L 10.006666660156252 0.028750000000000005  C 9.235232955047506 0.026699571477230812  8.495007546311328 0.3332015008704621  7.950833339843752 0.8800000000000001  L 6.124166660156252 2.70708333984375  C 5.578130646145567 3.2483899189031176  5.271439322094116 3.98570947756723  5.272500000000003 4.75458333984375  L 5.272500000000003 4.762916660156249  C 5.272500000000003 5.5391666601562495  5.575000000000002 6.26916666015625  6.124166660156252 6.818750000000001  L 7.950833339843752 8.645416660156252  C 8.342804305281268 9.038981935623166  8.840084208575933 9.31098840477189  9.38291666015625 9.42875  L 6.422500000000001 9.251249999999999  C 5.704634799964117 9.25103414760162  5.012202192749382 9.517080291931075  4.479166660156251 9.99791666015625  C 3.9501756025390673 10.472356221735236  3.6136334597683617 11.124388100273366  3.533333339843751 11.83041666015625  L 2.942500000000001 11.57125  C 1.3391666601562506 11.57125  0.034583339843750616 12.87541666015625  0.034583339843750616 14.477916660156247  L 0.034583339843750616 17.062083339843753  C 0.03619109143891678 18.667414940902002  1.3371683989417447 19.968392248404832  2.942500000000001 19.97  L 5.52541666015625 19.970000000000002  C 7.130653198798487 19.968163087584706  8.431496416646759 18.667319878473652  8.43333333984375 17.062083339843753  L 8.43333333984375 14.477916660156247  C 8.43333333984375 12.87541666015625  7.12875 11.57125  5.52541666015625 11.57125  L 5.074999999999999 11.57125  C 5.307619276358009 11.036082033245659  5.835212702193658 10.689588118231736  6.418749999999999 10.68875  L 13.58125 10.68875  C 14.17958333984375 10.68875  14.69458333984375 11.047500000000001  14.92166666015625 11.562083339843749  L 14.474166660156246 11.57125  C 12.871249999999998 11.57125  11.566666660156248 12.87541666015625  11.566666660156248 14.477916660156247  L 11.566666660156248 17.0625  Z M 17.057916660156252 13.00916666015625  C 17.869205345703737 13.010082846399113  18.526913989799123 13.667046214492222  18.528750000000002 14.478333339843747  L 18.528750000000002 17.0625  C 18.52737313305325 17.874180319814876  17.869597337505507 18.531769770788078  17.057916660156252 18.53291666015625  L 14.474583339843747 18.53291666015625  C 13.663010601075108 18.531997424329198  13.005459167656255 17.874073129466474  13.004999999999999 17.0625  L 13.004999999999999 14.478333339843747  C 13.006147994710894 13.667248343708023  13.6634980507882 13.010084661257615  14.474583339843747 13.00916666015625  L 17.057916660156252 13.00916666015625  Z M 6.709999999999999 4.767916660156251  L 6.709999999999999 4.76333333984375  C 6.709999999999999 4.37083333984375  6.86333333984375 4.001666679687499  7.14125 3.72416666015625  L 8.967916660156249 1.89708333984375  C 9.241636635286126 1.6209603561266637  9.614532603148481 1.4659496753980004  10.00333333984375 1.4666666601562501  L 10.0075 1.4666666601562501  C 10.4 1.4666666601562501  10.769166660156252 1.6195833203125  11.04666666015625 1.8975  L 12.87416666015625 3.72458333984375  C 13.149837333728293 3.9984025625794044  13.304650146749335 4.371033403223067  13.304166660156248 4.75958333984375  L 13.304166660156248 4.7675  C 13.304166660156248 5.172499999999999  13.13916666015625 5.5391666601562495  12.87416666015625 5.80333333984375  L 11.04666666015625 7.630416660156251  C 10.471994839115444 8.203291875650608  9.542171821040807 8.203291875650606  8.967500000000001 7.630416660156251  L 7.140833339843752 5.803750000000001  C 6.864612085878367 5.529891410799427  6.709467854792349 5.156885071267766  6.709999999999999 4.767916660156251  Z M 5.525833339843751 13.00916666015625  C 6.33714906350182 13.009854603301365  6.994872075900248 13.667018494641365  6.996250000000001 14.478333339843747  L 6.996250000000001 17.0625  C 6.995331986767579 17.874045514245214  6.337795221487967 18.531768653246836  5.52625 18.53291666015625  L 2.94291666015625 18.53291666015625  C 2.131113624563688 18.532227425563413  1.4731892345928426 17.87430303559256  1.4725000000000001 17.0625  L 1.4725000000000006 14.478333339843747  C 1.4738779240997537 13.667018494641365  2.1316009364981783 13.009854603301365  2.94291666015625 13.00916666015625  L 5.525833339843751 13.00916666015625  Z " fill-rule="evenodd" />
    </mask>
  </defs>
  <g transform="matrix(1 0 0 1 -34 -486 )">
    <path d="M 11.567083339843748 17.0625  C 11.568690682165169 18.667669129581647  12.869414457066117 19.968579305091804  14.474583339843747 19.970416660156253  L 17.057916660156252 19.970416660156253  C 18.663085542933878 19.9685793050918  19.96380931783483 18.667669129581643  19.965416660156247 17.0625  L 19.965416660156247 14.478333339843752  C 19.965416660156247 12.875833339843751  18.661666660156254 11.571666679687503  17.057916660156252 11.571666660156252  L 16.425 11.571666660156252  C 16.280009323606166 10.87442930136972  15.884515320933328 10.254505789801467  15.313333339843751 9.829166660156252  C 15.008333339843752 9.535000000000004  14.3266666796875 9.251666660156253  13.578333339843748 9.251666660156253  L 11.1775 9.251666660156253  C 11.687793441064471 9.026649175983096  12.12278985636965 8.659910181073915  12.43083333984375 8.195000000000002  L 13.89 6.8191666601562515  C 14.43601002823083 6.277535102901338  14.742550581445153 5.539917212533149  14.741249999999999 4.770833339843754  L 14.741249999999997 4.762500000000003  C 14.743495990858746 3.9912723357790107  14.436947044230513 3.251233469028911  13.89 2.7075000000000027  L 12.063333339843748 0.8800000000000026  C 11.521543296367927 0.3342258693692878  10.784028483679677 0.027728156282820073  10.015 0.028750000000000005  L 10.006666660156252 0.028750000000000005  C 9.235232955047506 0.026699571477230812  8.495007546311328 0.3332015008704621  7.950833339843752 0.8800000000000001  L 6.124166660156252 2.70708333984375  C 5.578130646145567 3.2483899189031176  5.271439322094116 3.98570947756723  5.272500000000003 4.75458333984375  L 5.272500000000003 4.762916660156249  C 5.272500000000003 5.5391666601562495  5.575000000000002 6.26916666015625  6.124166660156252 6.818750000000001  L 7.950833339843752 8.645416660156252  C 8.342804305281268 9.038981935623166  8.840084208575933 9.31098840477189  9.38291666015625 9.42875  L 6.422500000000001 9.251249999999999  C 5.704634799964117 9.25103414760162  5.012202192749382 9.517080291931075  4.479166660156251 9.99791666015625  C 3.9501756025390673 10.472356221735236  3.6136334597683617 11.124388100273366  3.533333339843751 11.83041666015625  L 2.942500000000001 11.57125  C 1.3391666601562506 11.57125  0.034583339843750616 12.87541666015625  0.034583339843750616 14.477916660156247  L 0.034583339843750616 17.062083339843753  C 0.03619109143891678 18.667414940902002  1.3371683989417447 19.968392248404832  2.942500000000001 19.97  L 5.52541666015625 19.970000000000002  C 7.130653198798487 19.968163087584706  8.431496416646759 18.667319878473652  8.43333333984375 17.062083339843753  L 8.43333333984375 14.477916660156247  C 8.43333333984375 12.87541666015625  7.12875 11.57125  5.52541666015625 11.57125  L 5.074999999999999 11.57125  C 5.307619276358009 11.036082033245659  5.835212702193658 10.689588118231736  6.418749999999999 10.68875  L 13.58125 10.68875  C 14.17958333984375 10.68875  14.69458333984375 11.047500000000001  14.92166666015625 11.562083339843749  L 14.474166660156246 11.57125  C 12.871249999999998 11.57125  11.566666660156248 12.87541666015625  11.566666660156248 14.477916660156247  L 11.566666660156248 17.0625  Z M 17.057916660156252 13.00916666015625  C 17.869205345703737 13.010082846399113  18.526913989799123 13.667046214492222  18.528750000000002 14.478333339843747  L 18.528750000000002 17.0625  C 18.52737313305325 17.874180319814876  17.869597337505507 18.531769770788078  17.057916660156252 18.53291666015625  L 14.474583339843747 18.53291666015625  C 13.663010601075108 18.531997424329198  13.005459167656255 17.874073129466474  13.004999999999999 17.0625  L 13.004999999999999 14.478333339843747  C 13.006147994710894 13.667248343708023  13.6634980507882 13.010084661257615  14.474583339843747 13.00916666015625  L 17.057916660156252 13.00916666015625  Z M 6.709999999999999 4.767916660156251  L 6.709999999999999 4.76333333984375  C 6.709999999999999 4.37083333984375  6.86333333984375 4.001666679687499  7.14125 3.72416666015625  L 8.967916660156249 1.89708333984375  C 9.241636635286126 1.6209603561266637  9.614532603148481 1.4659496753980004  10.00333333984375 1.4666666601562501  L 10.0075 1.4666666601562501  C 10.4 1.4666666601562501  10.769166660156252 1.6195833203125  11.04666666015625 1.8975  L 12.87416666015625 3.72458333984375  C 13.149837333728293 3.9984025625794044  13.304650146749335 4.371033403223067  13.304166660156248 4.75958333984375  L 13.304166660156248 4.7675  C 13.304166660156248 5.172499999999999  13.13916666015625 5.5391666601562495  12.87416666015625 5.80333333984375  L 11.04666666015625 7.630416660156251  C 10.471994839115444 8.203291875650608  9.542171821040807 8.203291875650606  8.967500000000001 7.630416660156251  L 7.140833339843752 5.803750000000001  C 6.864612085878367 5.529891410799427  6.709467854792349 5.156885071267766  6.709999999999999 4.767916660156251  Z M 5.525833339843751 13.00916666015625  C 6.33714906350182 13.009854603301365  6.994872075900248 13.667018494641365  6.996250000000001 14.478333339843747  L 6.996250000000001 17.0625  C 6.995331986767579 17.874045514245214  6.337795221487967 18.531768653246836  5.52625 18.53291666015625  L 2.94291666015625 18.53291666015625  C 2.131113624563688 18.532227425563413  1.4731892345928426 17.87430303559256  1.4725000000000001 17.0625  L 1.4725000000000006 14.478333339843747  C 1.4738779240997537 13.667018494641365  2.1316009364981783 13.009854603301365  2.94291666015625 13.00916666015625  L 5.525833339843751 13.00916666015625  Z " fill-rule="nonzero" fill="rgba(64, 128, 255, 1)" stroke="none" transform="matrix(1 0 0 1 34 486 )" class="fill" />
    <path d="M 11.567083339843748 17.0625  C 11.568690682165169 18.667669129581647  12.869414457066117 19.968579305091804  14.474583339843747 19.970416660156253  L 17.057916660156252 19.970416660156253  C 18.663085542933878 19.9685793050918  19.96380931783483 18.667669129581643  19.965416660156247 17.0625  L 19.965416660156247 14.478333339843752  C 19.965416660156247 12.875833339843751  18.661666660156254 11.571666679687503  17.057916660156252 11.571666660156252  L 16.425 11.571666660156252  C 16.280009323606166 10.87442930136972  15.884515320933328 10.254505789801467  15.313333339843751 9.829166660156252  C 15.008333339843752 9.535000000000004  14.3266666796875 9.251666660156253  13.578333339843748 9.251666660156253  L 11.1775 9.251666660156253  C 11.687793441064471 9.026649175983096  12.12278985636965 8.659910181073915  12.43083333984375 8.195000000000002  L 13.89 6.8191666601562515  C 14.43601002823083 6.277535102901338  14.742550581445153 5.539917212533149  14.741249999999999 4.770833339843754  L 14.741249999999997 4.762500000000003  C 14.743495990858746 3.9912723357790107  14.436947044230513 3.251233469028911  13.89 2.7075000000000027  L 12.063333339843748 0.8800000000000026  C 11.521543296367927 0.3342258693692878  10.784028483679677 0.027728156282820073  10.015 0.028750000000000005  L 10.006666660156252 0.028750000000000005  C 9.235232955047506 0.026699571477230812  8.495007546311328 0.3332015008704621  7.950833339843752 0.8800000000000001  L 6.124166660156252 2.70708333984375  C 5.578130646145567 3.2483899189031176  5.271439322094116 3.98570947756723  5.272500000000003 4.75458333984375  L 5.272500000000003 4.762916660156249  C 5.272500000000003 5.5391666601562495  5.575000000000002 6.26916666015625  6.124166660156252 6.818750000000001  L 7.950833339843752 8.645416660156252  C 8.342804305281268 9.038981935623166  8.840084208575933 9.31098840477189  9.38291666015625 9.42875  L 6.422500000000001 9.251249999999999  C 5.704634799964117 9.25103414760162  5.012202192749382 9.517080291931075  4.479166660156251 9.99791666015625  C 3.9501756025390673 10.472356221735236  3.6136334597683617 11.124388100273366  3.533333339843751 11.83041666015625  L 2.942500000000001 11.57125  C 1.3391666601562506 11.57125  0.034583339843750616 12.87541666015625  0.034583339843750616 14.477916660156247  L 0.034583339843750616 17.062083339843753  C 0.03619109143891678 18.667414940902002  1.3371683989417447 19.968392248404832  2.942500000000001 19.97  L 5.52541666015625 19.970000000000002  C 7.130653198798487 19.968163087584706  8.431496416646759 18.667319878473652  8.43333333984375 17.062083339843753  L 8.43333333984375 14.477916660156247  C 8.43333333984375 12.87541666015625  7.12875 11.57125  5.52541666015625 11.57125  L 5.074999999999999 11.57125  C 5.307619276358009 11.036082033245659  5.835212702193658 10.689588118231736  6.418749999999999 10.68875  L 13.58125 10.68875  C 14.17958333984375 10.68875  14.69458333984375 11.047500000000001  14.92166666015625 11.562083339843749  L 14.474166660156246 11.57125  C 12.871249999999998 11.57125  11.566666660156248 12.87541666015625  11.566666660156248 14.477916660156247  L 11.566666660156248 17.0625  Z " stroke-width="0" stroke-dasharray="0" stroke="rgba(255, 255, 255, 0)" fill="none" transform="matrix(1 0 0 1 34 486 )" class="stroke" mask="url(#Clip1333)" />
    <path d="M 17.057916660156252 13.00916666015625  C 17.869205345703737 13.010082846399113  18.526913989799123 13.667046214492222  18.528750000000002 14.478333339843747  L 18.528750000000002 17.0625  C 18.52737313305325 17.874180319814876  17.869597337505507 18.531769770788078  17.057916660156252 18.53291666015625  L 14.474583339843747 18.53291666015625  C 13.663010601075108 18.531997424329198  13.005459167656255 17.874073129466474  13.004999999999999 17.0625  L 13.004999999999999 14.478333339843747  C 13.006147994710894 13.667248343708023  13.6634980507882 13.010084661257615  14.474583339843747 13.00916666015625  L 17.057916660156252 13.00916666015625  Z " stroke-width="0" stroke-dasharray="0" stroke="rgba(255, 255, 255, 0)" fill="none" transform="matrix(1 0 0 1 34 486 )" class="stroke" mask="url(#Clip1333)" />
    <path d="M 6.709999999999999 4.767916660156251  L 6.709999999999999 4.76333333984375  C 6.709999999999999 4.37083333984375  6.86333333984375 4.001666679687499  7.14125 3.72416666015625  L 8.967916660156249 1.89708333984375  C 9.241636635286126 1.6209603561266637  9.614532603148481 1.4659496753980004  10.00333333984375 1.4666666601562501  L 10.0075 1.4666666601562501  C 10.4 1.4666666601562501  10.769166660156252 1.6195833203125  11.04666666015625 1.8975  L 12.87416666015625 3.72458333984375  C 13.149837333728293 3.9984025625794044  13.304650146749335 4.371033403223067  13.304166660156248 4.75958333984375  L 13.304166660156248 4.7675  C 13.304166660156248 5.172499999999999  13.13916666015625 5.5391666601562495  12.87416666015625 5.80333333984375  L 11.04666666015625 7.630416660156251  C 10.471994839115444 8.203291875650608  9.542171821040807 8.203291875650606  8.967500000000001 7.630416660156251  L 7.140833339843752 5.803750000000001  C 6.864612085878367 5.529891410799427  6.709467854792349 5.156885071267766  6.709999999999999 4.767916660156251  Z " stroke-width="0" stroke-dasharray="0" stroke="rgba(255, 255, 255, 0)" fill="none" transform="matrix(1 0 0 1 34 486 )" class="stroke" mask="url(#Clip1333)" />
    <path d="M 5.525833339843751 13.00916666015625  C 6.33714906350182 13.009854603301365  6.994872075900248 13.667018494641365  6.996250000000001 14.478333339843747  L 6.996250000000001 17.0625  C 6.995331986767579 17.874045514245214  6.337795221487967 18.531768653246836  5.52625 18.53291666015625  L 2.94291666015625 18.53291666015625  C 2.131113624563688 18.532227425563413  1.4731892345928426 17.87430303559256  1.4725000000000001 17.0625  L 1.4725000000000006 14.478333339843747  C 1.4738779240997537 13.667018494641365  2.1316009364981783 13.009854603301365  2.94291666015625 13.00916666015625  L 5.525833339843751 13.00916666015625  Z " stroke-width="0" stroke-dasharray="0" stroke="rgba(255, 255, 255, 0)" fill="none" transform="matrix(1 0 0 1 34 486 )" class="stroke" mask="url(#Clip1333)" />
  </g>
</svg>