<?xml version="1.0" encoding="utf-8"?>
<svg version="1.1" xmlns:xlink="http://www.w3.org/1999/xlink" width="26px" height="11px" xmlns="http://www.w3.org/2000/svg">
  <defs>
    <linearGradient gradientUnits="userSpaceOnUse" x1="-20.222222222222243" y1="-130.88888888888894" x2="111.74747474747471" y2="142.72222222222214" id="LinearGradient1499">
      <stop id="Stop1500" stop-color="#ffffff" stop-opacity="0.4980392156862745" offset="0" />
      <stop id="Stop1501" stop-color="#ffffff" stop-opacity="0.4980392156862745" offset="1" />
    </linearGradient>
    <pattern id="BGPattern" patternUnits="userSpaceOnUse" alignment="0 0" imageRepeat="None" />
    <mask fill="white" id="Clip1502">
      <path d="M 22.94601739130434 0.19403999999998545  L 3.1010086956521716 0.17995999999999485  C 2.4073739130434784 0.17995999999999485  1.7422260869565216 0.44879999999999354  1.2534260869565201 0.9275200000000035  C 0.7643995459568205 1.406044561403899  0.4915048897738934 2.054474484614938  0.4951304347826114 2.7293200000000013  L 2.49961739130435 2.7293200000000013  L 2.49961739130435 9.932560000000002  C 2.500069565217392 10.178519999999999  2.6262260869565215 10.407759999999996  2.835582608695654 10.54459999999999  C 3.04531798693509 10.681360774805302  3.3111359608620408 10.707902823959502  3.545043478260873 10.615439999999989  C 6.487182963704852 9.536515231367236  9.519570996645324 8.706820107701986  12.608417391304354 8.1356  C 12.953614025118442 8.071360388392337  13.30819467053373 8.071360388392337  13.653391304347828 8.1356  C 16.72159854729977 8.695936363745993  19.727751514163725 9.540321616714511  22.63085217391304 10.657239999999994  C 22.86643478260869 10.748759999999999  23.132765217391302 10.721919999999992  23.34438260869565 10.585959999999996  C 23.55599999999999 10.449999999999992  23.685321739130433 10.221639999999994  23.690747826086955 9.97479999999999  L 23.690747826086955 2.7297599999999846  L 25.551895652173915 2.7297599999999846  C 25.551895652173915 1.3296799999999884  24.385286956521735 0.19403999999998545  22.94601739130434 0.19403999999998545  Z " fill-rule="evenodd" />
    </mask>
  </defs>
  <g transform="matrix(1 0 0 1 -271 -227 )">
    <path d="M 22.94601739130434 0.19403999999998545  L 3.1010086956521716 0.17995999999999485  C 2.4073739130434784 0.17995999999999485  1.7422260869565216 0.44879999999999354  1.2534260869565201 0.9275200000000035  C 0.7643995459568205 1.406044561403899  0.4915048897738934 2.054474484614938  0.4951304347826114 2.7293200000000013  L 2.49961739130435 2.7293200000000013  L 2.49961739130435 9.932560000000002  C 2.500069565217392 10.178519999999999  2.6262260869565215 10.407759999999996  2.835582608695654 10.54459999999999  C 3.04531798693509 10.681360774805302  3.3111359608620408 10.707902823959502  3.545043478260873 10.615439999999989  C 6.487182963704852 9.536515231367236  9.519570996645324 8.706820107701986  12.608417391304354 8.1356  C 12.953614025118442 8.071360388392337  13.30819467053373 8.071360388392337  13.653391304347828 8.1356  C 16.72159854729977 8.695936363745993  19.727751514163725 9.540321616714511  22.63085217391304 10.657239999999994  C 22.86643478260869 10.748759999999999  23.132765217391302 10.721919999999992  23.34438260869565 10.585959999999996  C 23.55599999999999 10.449999999999992  23.685321739130433 10.221639999999994  23.690747826086955 9.97479999999999  L 23.690747826086955 2.7297599999999846  L 25.551895652173915 2.7297599999999846  C 25.551895652173915 1.3296799999999884  24.385286956521735 0.19403999999998545  22.94601739130434 0.19403999999998545  Z " fill-rule="nonzero" fill="url(#LinearGradient1499)" stroke="none" transform="matrix(1 0 0 1 271 227 )" class="fill" />
    <path d="M 22.94601739130434 0.19403999999998545  L 3.1010086956521716 0.17995999999999485  C 2.4073739130434784 0.17995999999999485  1.7422260869565216 0.44879999999999354  1.2534260869565201 0.9275200000000035  C 0.7643995459568205 1.406044561403899  0.4915048897738934 2.054474484614938  0.4951304347826114 2.7293200000000013  L 2.49961739130435 2.7293200000000013  L 2.49961739130435 9.932560000000002  C 2.500069565217392 10.178519999999999  2.6262260869565215 10.407759999999996  2.835582608695654 10.54459999999999  C 3.04531798693509 10.681360774805302  3.3111359608620408 10.707902823959502  3.545043478260873 10.615439999999989  C 6.487182963704852 9.536515231367236  9.519570996645324 8.706820107701986  12.608417391304354 8.1356  C 12.953614025118442 8.071360388392337  13.30819467053373 8.071360388392337  13.653391304347828 8.1356  C 16.72159854729977 8.695936363745993  19.727751514163725 9.540321616714511  22.63085217391304 10.657239999999994  C 22.86643478260869 10.748759999999999  23.132765217391302 10.721919999999992  23.34438260869565 10.585959999999996  C 23.55599999999999 10.449999999999992  23.685321739130433 10.221639999999994  23.690747826086955 9.97479999999999  L 23.690747826086955 2.7297599999999846  L 25.551895652173915 2.7297599999999846  C 25.551895652173915 1.3296799999999884  24.385286956521735 0.19403999999998545  22.94601739130434 0.19403999999998545  Z " stroke-width="0" stroke-dasharray="0" stroke="rgba(255, 255, 255, 0)" fill="none" transform="matrix(1 0 0 1 271 227 )" class="stroke" mask="url(#Clip1502)" />
  </g>
</svg>