<?xml version="1.0" encoding="utf-8"?>
<svg version="1.1" xmlns:xlink="http://www.w3.org/1999/xlink" width="7px" height="7px" xmlns="http://www.w3.org/2000/svg">
  <defs>
    <linearGradient gradientUnits="userSpaceOnUse" x1="-4.7795782463929" y1="-10.164919636617753" x2="11.691009988901222" y2="15.394129979035633" id="LinearGradient1535">
      <stop id="Stop1536" stop-color="#ffffff" stop-opacity="0.4980392156862745" offset="0" />
      <stop id="Stop1537" stop-color="#ffffff" stop-opacity="0.4980392156862745" offset="1" />
    </linearGradient>
    <pattern id="BGPattern" patternUnits="userSpaceOnUse" alignment="0 0" imageRepeat="None" />
    <mask fill="white" id="Clip1538">
      <path d="M 6.8324318910256405 3.5182291666666656  C 6.8324318910256405 5.379707532051282  5.318008814102559 6.8941306089743595  3.456530448717949 6.8941306089743595  C 1.5950520833333335 6.8941306089743595  0.08062900641025897 5.379707532051282  0.08062900641025897 3.5182291666666656  C 0.08062900641025897 1.65675080128205  1.5950520833333384 0.14232772435897306  3.456530448717949 0.14232772435897306  C 5.318008814102559 0.14232772435897306  6.8324318910256405 1.65675080128205  6.8324318910256405 3.5182291666666656  Z M 4.588842147435898 3.518229166666668  C 4.588842147435898 2.8942307692307705  4.080528846153846 2.3859174679487194  3.456530448717949 2.3859174679487194  C 2.832532051282051 2.3859174679487194  2.32421875 2.8942307692307705  2.32421875 3.518229166666668  C 2.32421875 4.1422275641025665  2.832532051282051 4.6505408653846185  3.456530448717949 4.6505408653846185  C 4.080528846153846 4.6505408653846185  4.588842147435898 4.1422275641025665  4.588842147435898 3.518229166666668  Z " fill-rule="evenodd" />
    </mask>
  </defs>
  <g transform="matrix(1 0 0 1 -312 -114 )">
    <path d="M 6.8324318910256405 3.5182291666666656  C 6.8324318910256405 5.379707532051282  5.318008814102559 6.8941306089743595  3.456530448717949 6.8941306089743595  C 1.5950520833333335 6.8941306089743595  0.08062900641025897 5.379707532051282  0.08062900641025897 3.5182291666666656  C 0.08062900641025897 1.65675080128205  1.5950520833333384 0.14232772435897306  3.456530448717949 0.14232772435897306  C 5.318008814102559 0.14232772435897306  6.8324318910256405 1.65675080128205  6.8324318910256405 3.5182291666666656  Z M 4.588842147435898 3.518229166666668  C 4.588842147435898 2.8942307692307705  4.080528846153846 2.3859174679487194  3.456530448717949 2.3859174679487194  C 2.832532051282051 2.3859174679487194  2.32421875 2.8942307692307705  2.32421875 3.518229166666668  C 2.32421875 4.1422275641025665  2.832532051282051 4.6505408653846185  3.456530448717949 4.6505408653846185  C 4.080528846153846 4.6505408653846185  4.588842147435898 4.1422275641025665  4.588842147435898 3.518229166666668  Z " fill-rule="nonzero" fill="url(#LinearGradient1535)" stroke="none" transform="matrix(1 0 0 1 312 114 )" class="fill" />
    <path d="M 6.8324318910256405 3.5182291666666656  C 6.8324318910256405 5.379707532051282  5.318008814102559 6.8941306089743595  3.456530448717949 6.8941306089743595  C 1.5950520833333335 6.8941306089743595  0.08062900641025897 5.379707532051282  0.08062900641025897 3.5182291666666656  C 0.08062900641025897 1.65675080128205  1.5950520833333384 0.14232772435897306  3.456530448717949 0.14232772435897306  C 5.318008814102559 0.14232772435897306  6.8324318910256405 1.65675080128205  6.8324318910256405 3.5182291666666656  Z " stroke-width="0" stroke-dasharray="0" stroke="rgba(255, 255, 255, 0)" fill="none" transform="matrix(1 0 0 1 312 114 )" class="stroke" mask="url(#Clip1538)" />
    <path d="M 4.588842147435898 3.518229166666668  C 4.588842147435898 2.8942307692307705  4.080528846153846 2.3859174679487194  3.456530448717949 2.3859174679487194  C 2.832532051282051 2.3859174679487194  2.32421875 2.8942307692307705  2.32421875 3.518229166666668  C 2.32421875 4.1422275641025665  2.832532051282051 4.6505408653846185  3.456530448717949 4.6505408653846185  C 4.080528846153846 4.6505408653846185  4.588842147435898 4.1422275641025665  4.588842147435898 3.518229166666668  Z " stroke-width="0" stroke-dasharray="0" stroke="rgba(255, 255, 255, 0)" fill="none" transform="matrix(1 0 0 1 312 114 )" class="stroke" mask="url(#Clip1538)" />
  </g>
</svg>